<?xml version="1.0" ?><svg enable-background="new 0 0 24 24" id="Layer_1" version="1.1" viewBox="0 0 24 24" xml:space="preserve" xmlns="http://www.w3.org/2000/svg" xmlns:xlink="http://www.w3.org/1999/xlink"><g><path d="M16.5,5.8000002   c2.3869038,1.5050354,4,4.1696901,4,7.1999998c0,4.694397-3.805603,8.5-8.5,8.5   c-1.132019,0-2.2102051-0.2258301-3.197998-0.6275024l-0.788269,1.8392944C9.2434082,23.2171021,10.5881348,23.5,12,23.5   c5.7990112,0,10.5-4.7010498,10.5-10.5c0-4.1765337-2.4691105-7.8026972-6-9.4941177V0.5h-3l-0.956336,1.9996123l0,0   C12.3741608,2.4914808,12.1715164,2.5,12,2.5C6.2009888,2.5,1.5,7.2009888,1.5,13   c0,1.8676758,0.4929199,3.617981,1.3478394,5.1375122l1.1270142-2.3565063C3.6724243,14.9085693,3.5,13.9754028,3.5,13   c0-4.5466099,3.5962243-8.2681293,8.0857525-8.4974823l0,0L2.5,23.5h3l3-7H14v1l2.5-2l-2.5-2v1H9.5l4.5-10v7l2.5,2V5.8000002z" fill="none" stroke="#303C42" stroke-linecap="round" stroke-linejoin="round" stroke-miterlimit="10"/><polygon fill="none" points="14,19.5    16.5,19.5 16.5,17.5  " stroke="#303C42" stroke-linecap="round" stroke-linejoin="round" stroke-miterlimit="10"/></g><g/><g/><g/><g/><g/><g/><g/><g/><g/><g/><g/><g/><g/><g/><g/></svg>