<svg viewBox="0 0 24 24" xml:space="preserve" xmlns="http://www.w3.org/2000/svg"><g fill="none" stroke="#de0b24" stroke-linecap="round" stroke-linejoin="round" stroke-miterlimit="10" class="stroke-303c42"><path d="M16.5 5.8c2.387 1.505 4 4.17 4 7.2a8.5 8.5 0 0 1-8.5 8.5 8.468 8.468 0 0 1-3.198-.628l-.788 1.84c1.23.505 2.574.788 3.986.788 5.799 0 10.5-4.701 10.5-10.5 0-4.177-2.47-7.803-6-9.494V.5h-3l-.956 2h0c-.17-.009-.372 0-.544 0C6.201 2.5 1.5 7.201 1.5 13c0 1.868.493 3.618 1.348 5.138l1.127-2.357A8.468 8.468 0 0 1 3.5 13c0-4.547 3.596-8.268 8.086-8.497h0L2.5 23.5h3l3-7H14v1l2.5-2-2.5-2v1H9.5l4.5-10v7l2.5 2V5.8z"></path><path d="M14 19.5h2.5v-2z"></path></g></svg>